Coordinates
version=1
nRows=32
nColumns=22
inDegrees=yes

Units are S.I. units (second, meters, Newtons, ...)
If the header above contains a line with 'inDegrees', this indicates whether rotational values are in degrees (yes) or radians (no).

endheader
time	pelvis_tilt	pelvis_list	pelvis_rotation	pelvis_tx	pelvis_ty	pelvis_tz	hip_flexion_r	hip_adduction_r	hip_rotation_r	knee_angle_r	ankle_angle_r	subtalar_angle_r	hip_flexion_l	hip_adduction_l	hip_rotation_l	knee_angle_l	ankle_angle_l	subtalar_angle_l	lumbar_extension	lumbar_bending	lumbar_rotation
      0.01000000	      1.17601238	      1.98395029	      0.16543476	     -1.52916215	      1.07755379	     -0.31894807	      8.88050865	     -2.45482401	      0.44329444	    -26.65519392	     15.26888982	     -1.35976473	      0.70793677	      3.93798219	     -2.39065013	    -13.61976100	     12.63118876	     -2.23745010	     -7.39778229	     -5.43300414	     -8.12878484
      0.02000000	      1.20102462	      2.01430533	      0.20306109	     -1.52832643	      1.07753983	     -0.31899367	      8.61808121	     -2.47063084	      0.21111514	    -26.22666039	     14.88300025	     -1.85052053	      0.55967556	      3.96909307	     -2.38341330	    -13.48372740	     12.62038376	     -2.24344790	     -7.33520137	     -5.47921020	     -8.14655186
      0.03000000	      1.23301849	      2.06439537	      0.23287264	     -1.52734851	      1.07752049	     -0.31901527	      8.31119984	     -2.51626143	     -0.07267451	    -25.74904865	     14.52650288	     -2.36788080	      0.39160179	      4.02090029	     -2.38950722	    -13.34099967	     12.62126310	     -2.23686621	     -7.26410307	     -5.55081923	     -8.13990678
      0.04000000	      1.26735898	      2.11081598	      0.25163417	     -1.52625694	      1.07749718	     -0.31899439	      7.96966687	     -2.56615345	     -0.38677166	    -25.23719076	     14.24206552	     -2.83311490	      0.21454574	      4.06743843	     -2.41596834	    -13.19897462	     12.64248150	     -2.23362569	     -7.18097200	     -5.61900106	     -8.10743286
      0.05000000	      1.30096266	      2.14076370	      0.25961914	     -1.52509860	      1.07748784	     -0.31891266	      7.60084755	     -2.60113936	     -0.69368606	    -24.69978728	     14.03046181	     -3.22389034	      0.04031236	      4.09471935	     -2.45137189	    -13.06791785	     12.66267856	     -2.23093129	     -7.08699463	     -5.66931621	     -8.05135146
      0.06000000	      1.32991820	      2.14673772	      0.24729837	     -1.52391264	      1.07749672	     -0.31875125	      7.21996590	     -2.60862233	     -0.95640894	    -24.15001797	     13.89268806	     -3.53220523	     -0.12209816	      4.09447575	     -2.50690469	    -12.95385664	     12.69146880	     -2.22979767	     -6.98196578	     -5.69470543	     -7.96436171
      0.07000000	      1.35505381	      2.12599213	      0.21170762	     -1.52272784	      1.07753765	     -0.31850733	      6.83785706	     -2.58551871	     -1.16315072	    -23.60214370	     13.80678176	     -3.75949721	     -0.27055085	      4.06386549	     -2.58088707	    -12.85842994	     12.72661057	     -2.22830543	     -6.86937208	     -5.69056837	     -7.84496648
      0.08000000	      1.34597064	      2.06274253	      0.15418398	     -1.52160160	      1.07758296	     -0.31818092	      6.49958154	     -2.51308809	     -1.30020574	    -23.06612589	     13.74013427	     -3.86337772	     -0.36055640	      3.98672870	     -2.65917813	    -12.79875663	     12.74133501	     -2.22552605	     -6.72047584	     -5.64055221	     -7.68779347
      0.09000000	      1.39509733	      1.98533789	      0.06895391	     -1.52045880	      1.07775785	     -0.31779205	      6.10394378	     -2.42768242	     -1.39720941	    -22.53927698	     13.71414721	     -3.96515315	     -0.52593442	      3.89427160	     -2.76254505	    -12.71553844	     12.77914496	     -2.21104948	     -6.63612042	     -5.57125435	     -7.52662543
      0.10000000	      1.36754350	      1.85941568	     -0.02842172	     -1.51945345	      1.07787786	     -0.31734117	      5.81791581	     -2.28630203	     -1.42432110	    -22.04408157	     13.65309362	     -3.94445905	     -0.56779138	      3.74768614	     -2.86310340	    -12.69858224	     12.80761959	     -2.20829876	     -6.47798153	     -5.44822223	     -7.34517132
      0.11000000	      1.36735544	      1.70940364	     -0.14551680	     -1.51848326	      1.07808120	     -0.31684748	      5.52029720	     -2.12031597	     -1.41880355	    -21.57168032	     13.58458761	     -3.87939544	     -0.63538546	      3.57481591	     -2.98274373	    -12.68505920	     12.84474128	     -2.19666253	     -6.35564023	     -5.29384392	     -7.15595994
      0.12000000	      1.38447272	      1.54014691	     -0.27558279	     -1.51756430	      1.07834630	     -0.31631514	      5.22231934	     -1.93612296	     -1.39938180	    -21.12114124	     13.50560003	     -3.74836465	     -0.72075289	      3.37988358	     -3.11762141	    -12.66697928	     12.89156240	     -2.17152500	     -6.26435336	     -5.11629769	     -6.98083476
      0.13000000	      1.38388763	      1.35602376	     -0.39551894	     -1.51674768	      1.07860793	     -0.31577971	      4.96089339	     -1.73632461	     -1.37170371	    -20.69340965	     13.41158603	     -3.59255173	     -0.76093838	      3.16805608	     -3.22539306	    -12.68897030	     12.92329806	     -2.14730683	     -6.16979567	     -4.91980366	     -6.81693133
      0.14000000	      1.37670319	      1.16332373	     -0.50525783	     -1.51601892	      1.07886779	     -0.31524294	      4.71838919	     -1.52674967	     -1.34845181	    -20.28009646	     13.29879750	     -3.43619501	     -0.77196688	      2.94583220	     -3.31469940	    -12.74428124	     12.95347777	     -2.12806953	     -6.08581953	     -4.71195918	     -6.67109896
      0.15000000	      1.38607405	      0.97346822	     -0.60600994	     -1.51535034	      1.07914412	     -0.31469739	      4.46328307	     -1.32031538	     -1.34392162	    -19.87195390	     13.19094691	     -3.25337618	     -0.79552263	      2.72407382	     -3.40093296	    -12.80050532	     12.99521667	     -2.10296820	     -6.03739601	     -4.50602378	     -6.56142978
      0.16000000	      1.38943138	      0.78792387	     -0.68488877	     -1.51476007	      1.07939735	     -0.31417316	      4.21850481	     -1.11644514	     -1.36319453	    -19.46845194	     13.07008956	     -3.11290356	     -0.79393535	      2.50646867	     -3.45478089	    -12.88390988	     13.03011438	     -2.08736026	     -6.00138584	     -4.30408240	     -6.47697366
      0.17000000	      1.39101786	      0.60998857	     -0.74248658	     -1.51425318	      1.07962602	     -0.31366677	      3.97933480	     -0.91779490	     -1.40407720	    -19.06890326	     12.94692415	     -3.01239107	     -0.77769110	      2.29554745	     -3.48223292	    -12.98071591	     13.05293800	     -2.07799824	     -5.98339885	     -4.10962733	     -6.42061283
      0.18000000	      1.42918321	      0.44875047	     -0.78022542	     -1.51372656	      1.07988631	     -0.31318989	      3.68838743	     -0.73654705	     -1.47774795	    -18.65328951	     12.83309318	     -2.91212049	     -0.81644938	      2.10247830	     -3.50543093	    -13.04667680	     13.10220776	     -2.06395669	     -6.01040358	     -3.93112242	     -6.41539404
      0.19000000	      1.45605468	      0.29595078	     -0.79523387	     -1.51327173	      1.08010521	     -0.31274314	      3.41313540	     -0.56073246	     -1.56790419	    -18.24247369	     12.71264056	     -2.86777502	     -0.83459805	      1.91805625	     -3.49900796	    -13.12027636	     13.13292612	     -2.05720464	     -6.04024399	     -3.76106780	     -6.42692357
      0.20000000	      1.47019347	      0.15414700	     -0.79528731	     -1.51286463	      1.08028824	     -0.31233181	      3.15587411	     -0.39481625	     -1.66805073	    -17.83805958	     12.59042316	     -2.85618121	     -0.84033514	      1.74593968	     -3.47658733	    -13.18603230	     13.15128616	     -2.05412691	     -6.06409371	     -3.59989119	     -6.45105090
      0.21000000	      1.49351791	      0.02193890	     -0.78053789	     -1.51244568	      1.08047067	     -0.31193118	      2.88425195	     -0.23600720	     -1.77497418	    -17.42949045	     12.47245253	     -2.86122463	     -0.86885821	      1.58285035	     -3.44769715	    -13.22815384	     13.17019854	     -2.04983974	     -6.09523549	     -3.45113609	     -6.50045428
      0.22000000	      1.51841931	     -0.09649774	     -0.76044652	     -1.51202660	      1.08064817	     -0.31156288	      2.61117505	     -0.09233182	     -1.88205509	    -17.02154164	     12.36113289	     -2.87429921	     -0.91263264	      1.43577771	     -3.41702566	    -13.24416972	     13.18421619	     -2.04355000	     -6.12513346	     -3.31260342	     -6.55785237
      0.23000000	      1.58576317	     -0.18921456	     -0.73569057	     -1.51157770	      1.08087955	     -0.31122858	      2.28799257	      0.02192934	     -1.98421617	    -16.60804105	     12.27392686	     -2.89777825	     -1.02810411	      1.31820661	     -3.39510226	    -13.21158414	     13.19445791	     -2.02845313	     -6.19987271	     -3.19960948	     -6.63504454
      0.24000000	      1.57604268	     -0.29159935	     -0.71163330	     -1.51117939	      1.08100113	     -0.31090933	      2.06604352	      0.14807052	     -2.07457802	    -16.22294797	     12.16343079	     -2.89841140	     -1.05419594	      1.18960633	     -3.37096690	    -13.18808499	     13.19420215	     -2.02249736	     -6.18382428	     -3.07212037	     -6.68487720
      0.25000000	      1.63043145	     -0.36893387	     -0.67554749	     -1.51073031	      1.08120953	     -0.31064175	      1.76455330	      0.24413067	     -2.16476058	    -15.82487289	     12.08392113	     -2.89983030	     -1.17180155	      1.09008692	     -3.34831416	    -13.12394797	     13.19380240	     -2.00672666	     -6.23405825	     -2.96647873	     -6.76264720
      0.26000000	      1.61623700	     -0.45164813	     -0.63657685	     -1.51032228	      1.08132108	     -0.31040689	      1.55469373	      0.34509596	     -2.24976840	    -15.45605189	     11.98175958	     -2.88905485	     -1.21062809	      0.98495081	     -3.31708870	    -13.06519181	     13.18032407	     -1.99751178	     -6.20375943	     -2.85008409	     -6.80807398
      0.27000000	      1.65656284	     -0.51789820	     -0.57781278	     -1.50985901	      1.08150712	     -0.31021653	      1.27712414	      0.42744816	     -2.34725987	    -15.07960441	     11.90469701	     -2.87165147	     -1.32259904	      0.89813508	     -3.27948909	    -12.98071412	     13.17738774	     -1.98269225	     -6.22741719	     -2.74883442	     -6.89124769
      0.28000000	      1.68344129	     -0.57825223	     -0.50148962	     -1.50943090	      1.08167259	     -0.31008698	      1.02000241	      0.50249677	     -2.44098640	    -14.71344349	     11.82602391	     -2.84874741	     -1.41417200	      0.81888159	     -3.21682751	    -12.90063646	     13.15415078	     -1.96541316	     -6.23988581	     -2.64910185	     -6.95128606
      0.29000000	      1.70606645	     -0.63452753	     -0.40498165	     -1.50900499	      1.08183062	     -0.31001139	      0.77162423	      0.57273607	     -2.54964381	    -14.35780459	     11.74416651	     -2.82478034	     -1.50111211	      0.74469252	     -3.13471537	    -12.81611970	     13.12950085	     -1.94689691	     -6.24558454	     -2.54905819	     -7.01024125
      0.30000000	      1.69928091	     -0.69586849	     -0.28556849	     -1.50862216	      1.08194182	     -0.30998370	      0.56535263	      0.64873772	     -2.67933675	    -14.01934254	     11.64664168	     -2.80845443	     -1.54202199	      0.66398240	     -3.02861330	    -12.75168215	     13.11184288	     -1.93148556	     -6.22169680	     -2.44065206	     -7.06122351
      0.31000000	      1.72847398	     -0.73956537	     -0.14216651	     -1.50823805	      1.08209730	     -0.31001550	      0.31730661	      0.70545969	     -2.82802902	    -13.67864011	     11.57546859	     -2.78856021	     -1.62691414	      0.60256764	     -2.90923396	    -12.67081144	     13.09742015	     -1.90984179	     -6.24100283	     -2.34813095	     -7.12993169
      0.32000000	      1.72357164	     -0.78429940	      0.01096329	     -1.50793670	      1.08220165	     -0.31007320	      0.12004281	      0.76481752	     -2.97379895	    -13.35556419	     11.48612889	     -2.77478069	     -1.65729187	      0.54014282	     -2.76519955	    -12.61435463	     13.06736792	     -1.88834806	     -6.23094085	     -2.25541267	     -7.15468066
